<svg viewBox="0 0 156 97" xmlns="http://www.w3.org/2000/svg" xml:space="preserve" style="fill-rule:evenodd;clip-rule:evenodd;stroke-linecap:round;stroke-linejoin:round;stroke-miterlimit:1.5"><path d="M187.121 321.158s-3.021.541-4.925 2.697l-53.456.948-22.441-23.622 54.856 1.002c2.276 2.501 4.288 2.413 6.072.111l18.535.338s-2.837 3.914-2.063 8.626c.308 1.879 2.348 3.654 3.455 5.741l-.033 4.159Z" style="fill:none;stroke:#000;stroke-width:1.67px" transform="translate(-32.112 -264.334)"/><path d="M187.121 321.158s-3.021.541-4.925 2.697l-53.456.948-22.441-23.622 54.856 1.002c2.276 2.501 4.288 2.413 6.072.111l18.535.338s-2.837 3.914-2.063 8.626c.308 1.879 2.348 3.654 3.455 5.741l-.033 4.159Zm-12.512-.013c-.664 0-1.247-.117-1.749-.352a3.407 3.407 0 0 1-1.239-.959 4.137 4.137 0 0 1-.729-1.433 6.26 6.26 0 0 1-.243-1.774c0-.858.146-1.615.438-2.271a4.963 4.963 0 0 1 1.141-1.64c.47-.437 1-.769 1.591-.995a5.016 5.016 0 0 1 1.81-.341c.324 0 .62.033.887.098.267.064.514.137.741.218.243.081.477.178.704.292l1.36-.705.219.073c0 1.263.004 2.522.012 3.777.008 1.255.012 2.515.012 3.778 0 .647.276.955.826.923.13 0 .235-.021.316-.061.081-.04.162-.085.243-.134.065-.064.138-.121.218-.17l.243.146a2.991 2.991 0 0 1-.437.777 2.563 2.563 0 0 1-.607.523c-.243.154-.526.23-.85.23-.551 0-.94-.174-1.166-.522-.227-.348-.34-.83-.34-1.445v-.729c-.098.34-.239.672-.425.996a3.564 3.564 0 0 1-.693.862 3.296 3.296 0 0 1-.971.608c-.373.154-.81.23-1.312.23Zm-19.822-.607 1.288-.146c.469-.048.781-.141.935-.279.154-.138.231-.465.231-.984v-11.295c0-.243-.012-.453-.037-.632a.96.96 0 0 0-.158-.437c-.08-.113-.214-.21-.4-.291a3.16 3.16 0 0 0-.741-.195l-1.02-.17-.025-.413c.389 0 .701.004.935.012.235.009.442-.004.62-.036l3.255-.17a9.706 9.706 0 0 1 1.214-.073c1.863 0 3.268.275 4.215.826.947.551 1.421 1.514 1.421 2.891 0 .955-.243 1.708-.729 2.259-.486.55-1.222 1.06-2.21 1.53l2.672 4.688c.372.648.696 1.15.971 1.506.276.357.547.624.814.802.267.178.551.295.85.352.3.057.668.118 1.106.182v.438c-.34-.017-.713-.025-1.118-.025h-2.502c-.356 0-.623.008-.801.025l-3.693-6.851c-.259-.502-.664-.753-1.214-.753h-1.288v5.685c0 .388.077.672.231.85.154.178.425.316.814.413l1.19.291v.437a64.91 64.91 0 0 0-3.558-.097c-1.207 0-2.296.033-3.268.097v-.437Zm23.223-4.761c0-.55-.045-1.052-.134-1.506a3.169 3.169 0 0 0-.449-1.154 2.133 2.133 0 0 0-.814-.728c-.332-.171-.749-.256-1.251-.256-.34 0-.7.069-1.081.207a2.723 2.723 0 0 0-1.032.68c-.308.316-.563.721-.766 1.215-.202.494-.303 1.089-.303 1.785 0 .534.069 1.049.206 1.543.138.493.336.927.595 1.299.26.373.575.668.948.887.372.218.801.328 1.287.328.389 0 .749-.098 1.081-.292.332-.194.62-.465.862-.814.243-.348.442-.757.596-1.226.153-.47.238-.98.255-1.531v-.437Zm-18.632-3.158c3.239.114 4.859-.915 4.859-3.085 0-1.02-.353-1.834-1.057-2.441-.704-.607-1.688-.911-2.951-.911a7.522 7.522 0 0 0-.851.049v6.388Z" style="fill:#ebebeb;stroke:#000;stroke-width:.42px" transform="translate(-32.112 -264.334)"/><path d="M1322.84 720.472h-23.63s-7.25-6.539-11.81-7.086c-9.84-1.181-22.68-2.834-47.24 0l-11.81 7.086V696.85c27.07 7.556 51.03 7.42 72.04 0l22.45 23.622Z" style="fill:#b4f8bf" transform="translate(-1226.21 -660.003)"/><path d="M14.32 54.493 2.73 61.452a1.145 1.145 0 0 1-1.74-.983V36.847c0-.358.17-.696.45-.912.29-.217.66-.288 1-.191 12.61 3.517 24.53 5.357 35.79 5.555 12.69.224 24.54-1.638 35.57-5.532.43-.151.9-.036 1.21.29L97.45 59.68a1.141 1.141 0 0 1-.82 1.935H73c-.28 0-.55-.105-.77-.295 0 0-3.11-2.813-6.51-4.856-1.61-.967-3.27-1.776-4.66-1.944-6.03-.722-13.18-1.624-23.48-1.552-6.38.044-13.97.462-23.26 1.525Zm59.54-16.32c-11.07 3.815-22.96 5.642-35.67 5.418-11.01-.195-22.64-1.927-34.91-5.241v20.096L13.36 52.4l.46-.155c9.49-1.096 17.24-1.524 23.75-1.57 10.42-.071 17.66.839 23.76 1.57 1.66.199 3.66 1.105 5.57 2.255 2.9 1.745 5.61 4.022 6.53 4.824h20.53l-20.1-21.151Z"/><path d="m1293.04 709.281-57.62-1.176a.625.625 0 1 1 .03-1.25l57.87 1.182c.16.003.31.068.43.182l7.09 7.087c.24.244.24.64 0 .884a.633.633 0 0 1-.89 0l-6.91-6.909Z" style="fill-opacity:.26" transform="translate(-1226.21 -660.003)"/><path d="M1299.2 661.417s46.22 8.979 47.24 46.063c1.02 37.084-47.24 48.426-47.24 48.426-8.04-31.314-8.12-62.808 0-94.489Zm5.62 83.677c7.18-3.031 13.68-7.289 19.45-12.845 5.77-5.557 10.82-12.411 15.1-20.635 0 0-33.49 8.721-34.55 33.48ZM1306 674c7.18 3.031 13.68 7.29 19.45 12.846 5.78 5.556 10.82 12.411 15.1 20.634 0 0-33.49-8.72-34.55-33.48Z" style="fill:#d8d2ee;fill-opacity:.76" transform="translate(-1226.21 -660.003)"/><path d="M73.15.596a.834.834 0 0 0-.97.612c-4.06 15.863-6.08 31.68-6.08 47.45-.01 15.864 2.03 31.68 6.08 47.452.11.439.56.708 1 .604 0 0 23.91-5.631 37.92-21.866 6.06-7.028 10.28-16.027 9.96-27.394-.3-11.128-4.6-19.776-10.51-26.441C96.47 5.137 73.15.596 73.15.596Zm.45 1.802c-3.9 15.466-5.83 30.885-5.84 46.26 0 15.455 1.95 30.865 5.83 46.23 4.19-1.117 24.06-7.006 36.24-21.13 5.82-6.736 9.87-15.361 9.57-26.258-.38-13.634-6.99-23.388-15.11-30.261C92.34 7.116 77.15 3.207 73.6 2.398Zm4.18 82.658a.82.82 0 0 0 .35.72c.24.163.54.194.8.083a63.683 63.683 0 0 0 10.46-5.592 64.907 64.907 0 0 0 9.25-7.421c3.03-2.915 5.86-6.182 8.49-9.812 2.43-3.365 4.69-7.041 6.77-11.038a.828.828 0 0 0-.09-.904.826.826 0 0 0-.86-.287s-16.45 4.29-26.82 15.357c-4.61 4.909-8.02 11.139-8.35 18.894Zm33.7-32.074c-4.52 1.454-16.17 5.825-24.14 14.32-4.07 4.346-7.18 9.78-7.81 16.479a61.915 61.915 0 0 0 8.94-4.905c3.18-2.1 6.19-4.507 9.01-7.231a70.61 70.61 0 0 0 8.29-9.588 83.807 83.807 0 0 0 5.71-9.075ZM80.11 13.229a.815.815 0 0 0-.79.084.805.805 0 0 0-.36.72c.33 7.755 3.74 13.985 8.35 18.894 10.37 11.067 26.82 15.357 26.82 15.357.32.083.66-.03.86-.287a.829.829 0 0 0 .09-.904c-2.08-3.997-4.34-7.674-6.77-11.038-2.63-3.631-5.46-6.898-8.49-9.812a64.838 64.838 0 0 0-9.25-7.421 63.612 63.612 0 0 0-10.46-5.593Zm.6 2.078c.63 6.699 3.74 12.134 7.81 16.48 7.97 8.495 19.63 12.865 24.15 14.32a85.329 85.329 0 0 0-5.72-9.075 71.206 71.206 0 0 0-8.28-9.59 63.318 63.318 0 0 0-9.02-7.23 61.915 61.915 0 0 0-8.94-4.905Z"/></svg>